Coordinates
version=1
nRows=6
nColumns=34
inDegrees=yes

Units are S.I. units (second, meters, Newtons, ...)
If the header above contains a line with 'inDegrees', this indicates whether rotational values are in degrees (yes) or radians (no).

endheader
time	pelvis_tilt	pelvis_list	pelvis_rotation	pelvis_tx	pelvis_ty	pelvis_tz	hip_flexion_r	hip_adduction_r	hip_rotation_r	knee_angle_r	ankle_angle_r	subtalar_angle_r	mtp_angle_r	hip_flexion_l	hip_adduction_l	hip_rotation_l	knee_angle_l	ankle_angle_l	subtalar_angle_l	mtp_angle_l	lumbar_extension	lumbar_bending	lumbar_rotation	arm_flex_r	arm_add_r	arm_rot_r	elbow_flex_r	pro_sup_r	arm_flex_l	arm_add_l	arm_rot_l	elbow_flex_l	pro_sup_l
      2.77000000	     -2.37050544	      2.02750757	     -1.34266478	      0.29961063	      0.92111261	     -0.15160734	     27.59829874	     -0.37766670	     -0.16986897	    -46.45828171	     -0.81642706	     -8.45606754	     21.70788872	      1.28050555	      6.57442857	      0.07785527	    -11.49188126	      9.66175442	      0.97784127	      5.79408620	     -3.33362778	     -1.81306422	     -6.61396232	     -9.16094097	    -16.37645330	      1.51783738	     20.42574916	     90.00000000	     -0.33146325	    -19.16759548	     12.77335335	     32.25712887	     90.00000000
      2.78000000	     -2.15786655	      1.86165928	     -1.10600758	      0.31166864	      0.92094579	     -0.15119298	     27.53912922	     -0.32336034	     -0.37329292	    -42.82668934	     -0.47173877	     -8.76096048	     19.44641774	     -0.15589684	      6.32167236	     -0.13586385	    -10.80806262	     10.27919126	      1.82803135	      4.92026295	     -3.65969256	     -1.63600614	     -7.11133495	     -9.22410741	    -16.27293938	      1.18669461	     19.85365109	     90.00000000	     -0.30755254	    -19.32836764	     11.47471417	     33.98004674	     90.00000000
      2.79000000	     -1.97056202	      1.79772988	     -0.69978161	      0.32390407	      0.92047549	     -0.15105387	     27.37662153	     -0.50953792	     -0.89317138	    -38.94260205	     -0.33653757	     -9.05942968	     19.08029545	     -1.57687552	      6.18900289	      0.05091217	    -10.13467560	     10.61434775	      2.28421590	      4.87561048	     -3.91331566	     -1.53312044	     -7.61711427	     -9.43129232	    -16.18294903	      0.88813968	     19.39803322	     90.00000000	      0.07605464	    -19.55782960	     11.53906977	     35.04615878	     90.00000000
      2.80000000	     -2.16552446	      1.87574144	     -0.47047265	      0.33613351	      0.91922053	     -0.15063531	     27.57636904	     -0.67488701	     -1.00345523	    -34.96418438	     -0.21854084	     -9.02318464	     18.90701939	     -2.56400395	      6.20974279	      0.18731472	     -9.48127812	     10.85192245	      2.62068870	      4.89418295	     -3.69179347	     -1.60296308	     -7.84600911	     -9.87350647	    -16.09631075	      0.72941573	     19.28654535	     90.00000000	      0.54262172	    -19.62183363	     11.28540658	     35.71030171	     90.00000000
      2.81000000	     -1.63079452	      1.72141423	     -0.07652676	      0.34861634	      0.91896099	     -0.15040961	     26.75465685	     -0.74067305	     -1.66916302	    -30.65558033	     -0.27367145	     -9.09930199	     18.39870882	     -4.31487217	      5.94338940	      0.16468580	     -8.89322336	     11.10692941	      3.26265867	      4.84676974	     -4.36964596	     -1.40067436	     -8.38108688	     -9.83306050	    -15.94587560	      0.19107256	     18.47548892	     90.00000000	      0.79077620	    -19.80446180	     10.80997575	     36.97340502	     90.00000000
      2.82000000	     -1.80835929	      1.82263040	      0.21782582	      0.36081245	      0.91743246	     -0.14991607	     26.74666784	     -0.91471881	     -1.73710702	    -26.47805816	     -0.21691189	     -8.50105175	     18.22942665	     -5.26824013	      5.96415522	      0.42742123	     -8.35263323	     11.30598058	      3.55023856	      4.86292359	     -4.19712004	     -1.51998372	     -8.67439480	    -10.17903221	    -15.82250183	      0.05854920	     18.36133300	     90.00000000	      1.14653446	    -19.91731073	     10.60293628	     37.81058498	     90.00000000
